<?xml version="1.0" encoding="utf-8"?>
<!-- Generator: Adobe Illustrator 27.0.0, SVG Export Plug-In . SVG Version: 6.00 Build 0)  -->
<svg version="1.1" id="Layer_1" xmlns="http://www.w3.org/2000/svg" xmlns:xlink="http://www.w3.org/1999/xlink" x="0px" y="0px"
	 viewBox="0 0 792 612" style="enable-background:new 0 0 792 612;" xml:space="preserve">
<style type="text/css">
	.st0{fill:#EC008C;}
	.st1{fill:#FFFFFF;}
	.st2{fill:#E90E8B;}
</style>
<g>
	<path class="st0" d="M186.4,271.3c-19.59,0-35.47,15.92-35.47,35.53c0,19.61,15.88,35.5,35.47,35.5s35.47-15.88,35.47-35.5
		C221.87,287.22,205.99,271.3,186.4,271.3z M177.48,311.01c-2.32,2.32-6.07,2.32-8.39,0c-2.32-2.32-2.32-6.08,0-8.4
		c2.32-2.32,6.07-2.32,8.39,0C179.8,304.93,179.79,308.7,177.48,311.01z M190.6,324.13c-2.32,2.32-6.08,2.32-8.4,0
		c-2.32-2.32-2.32-6.07,0-8.39c2.32-2.32,6.08-2.31,8.4,0C192.92,318.06,192.92,321.81,190.6,324.13z M190.6,297.89
		c-2.32,2.32-6.08,2.32-8.4,0c-2.32-2.32-2.32-6.07,0-8.39c2.32-2.32,6.08-2.31,8.4,0C192.92,291.82,192.92,295.57,190.6,297.89z
		 M203.71,311.01c-2.32,2.32-6.07,2.32-8.39,0c-2.32-2.32-2.32-6.08,0-8.4c2.32-2.32,6.07-2.32,8.39,0
		C206.03,304.93,206.03,308.7,203.71,311.01z"/>
	<g>
		<g>
			<path class="st1" d="M185.8,191.84c-62.62,0-113.56,51.32-113.56,114.41l-0.11,113.06h11.78l0-113.06
				c0-56.56,45.71-102.58,101.88-102.58c56.12,0,101.77,46.02,101.77,102.58c0,27.18-10.59,52.65-29.82,71.71
				c-19.18,19.01-44.73,29.48-71.95,29.48c-2.02,0-3.98-0.1-5.99-0.22c-1.43-0.08-2.93-0.21-4.86-0.42l-3.14-0.33l-0.79-0.08
				l-0.43-0.05v-0.43v-0.79v-3.16l0-21.17l0-4.05v-1.01v-0.55l0.55,0.08l1,0.14l4.01,0.57c3.36,0.48,6.72,0.72,9.99,0.72
				c38.98,0,70.69-31.59,70.69-70.42c0-39.22-31.71-71.13-70.69-71.13c-38.84,0-70.45,31.91-70.45,71.13v113.06h11.72l0.07-113.07
				c0-32.62,26.31-59.17,58.66-59.17c32.4,0,58.75,26.54,58.75,59.17c0,32.24-26.36,58.46-58.75,58.46c-3.88,0-7.79-0.39-11.63-1.16
				c-5.48-1.1-10.76-2.99-15.7-5.62v58.05c5.59,1.37,11.34,2.31,17.09,2.82c3.77,0.33,6.92,0.48,9.91,0.48
				c30.39,0,58.91-11.71,80.32-32.97c21.44-21.3,33.25-49.73,33.25-80.05C299.38,243.17,248.43,191.84,185.8,191.84z"/>
		</g>
	</g>
	<g>
		<path class="st1" d="M185.87,214.05c-50.47,0-91.53,41.37-91.53,92.21l-0.09,113.05h10.23l0-113.05
			c0-45.18,36.51-81.94,81.39-81.94c44.83,0,81.3,36.76,81.3,81.94c0,21.71-8.46,42.06-23.82,57.29
			c-15.32,15.19-35.73,23.55-57.48,23.55c-1.61,0-3.18-0.08-4.78-0.18c-0.14-0.01-0.28-0.02-0.42-0.03v10.29
			c1.86,0.12,3.57,0.18,5.2,0.18c24.49,0,47.48-9.44,64.74-26.58c17.29-17.17,26.8-40.08,26.8-64.53
			C277.41,255.42,236.35,214.05,185.87,214.05z"/>
	</g>
</g>
<g>
	<polygon class="st0" points="360.84,243.03 339.87,193.61 331.21,193.61 360.84,260.63 390.48,193.61 381.81,193.61 	"/>
	<polygon class="st0" points="400.23,193.61 395.95,193.61 395.95,257.44 400.23,257.44 403.7,257.44 432.42,257.44 432.42,250.14 
		403.7,250.14 403.7,226.44 430.6,226.44 430.6,219.14 403.7,219.14 403.7,200.91 432.42,200.91 432.42,193.61 403.7,193.61 	"/>
	<path class="st0" d="M476.87,227.21c-1.61-1.49-3.36-2.72-5.24-3.69c-1.88-0.97-3.68-1.76-5.38-2.37c-3.71-1.28-6.64-2.57-8.8-3.88
		c-2.16-1.31-3.69-2.7-4.6-4.19c-0.91-1.49-1.37-3.11-1.37-4.88c0-2.07,0.79-3.93,2.37-5.61c1.58-1.67,4.1-2.51,7.57-2.51
		c2.49,0,4.6,0.49,6.34,1.46c1.73,0.97,3.21,2.22,4.42,3.74c1.22,1.52,2.22,3.07,3.01,4.65l6.66-3.83
		c-1.03-2.25-2.46-4.39-4.29-6.43c-1.82-2.04-4.03-3.71-6.61-5.01c-2.58-1.31-5.61-1.96-9.07-1.96c-3.59,0-6.78,0.72-9.57,2.14
		c-2.8,1.43-4.99,3.39-6.57,5.88c-1.58,2.49-2.37,5.32-2.37,8.48c0,2.92,0.56,5.38,1.69,7.39c1.12,2.01,2.57,3.69,4.33,5.06
		c1.76,1.37,3.62,2.49,5.56,3.37c1.94,0.88,3.71,1.6,5.29,2.14c2.43,0.85,4.73,1.81,6.88,2.87c2.16,1.06,3.91,2.45,5.24,4.15
		c1.34,1.7,2.01,3.98,2.01,6.84c0,2.92-1.03,5.32-3.1,7.2c-2.07,1.88-4.8,2.83-8.21,2.83c-2.55,0-4.83-0.55-6.84-1.64
		c-2.01-1.09-3.82-2.61-5.43-4.56c-1.61-1.95-3.15-4.19-4.6-6.75l-6.2,4.19c1.4,2.8,3.21,5.42,5.43,7.89
		c2.22,2.46,4.8,4.44,7.75,5.93c2.95,1.49,6.15,2.23,9.62,2.23c2.55,0,5-0.43,7.34-1.28c2.34-0.85,4.44-2.07,6.29-3.65
		c1.85-1.58,3.31-3.49,4.38-5.74c1.06-2.25,1.6-4.77,1.6-7.57c0-2.92-0.52-5.42-1.55-7.52C479.8,230.49,478.48,228.7,476.87,227.21z
		"/>
	<polygon class="st0" points="485.12,200.91 501.53,200.91 501.53,257.44 509.28,257.44 509.28,200.91 525.7,200.91 525.7,193.61 
		485.12,193.61 	"/>
	<rect x="531.62" y="193.61" class="st0" width="7.75" height="63.83"/>
	<path class="st0" d="M587.34,197.62c-4.8-2.67-10.3-4.01-16.5-4.01h-11.4h-3.46h-4.29v63.83h4.29h3.46h11.4
		c6.2,0,11.7-1.34,16.5-4.01c4.8-2.67,8.57-6.4,11.31-11.17c2.74-4.77,4.1-10.35,4.1-16.73c0-6.38-1.37-11.96-4.1-16.73
		C595.91,204.02,592.14,200.3,587.34,197.62z M593.26,235.56c-1.16,2.98-2.8,5.52-4.92,7.61c-2.13,2.1-4.68,3.71-7.66,4.83
		c-2.98,1.13-6.26,1.69-9.85,1.69h-11.4v-48.33h11.4c3.59,0,6.87,0.56,9.85,1.69c2.98,1.13,5.53,2.74,7.66,4.83
		c2.13,2.1,3.77,4.64,4.92,7.61c1.15,2.98,1.73,6.32,1.73,10.03S594.42,232.58,593.26,235.56z"/>
	<path class="st0" d="M663.29,202.14c-2.92-2.95-6.34-5.26-10.26-6.93c-3.92-1.67-8.22-2.51-12.9-2.51c-4.62,0-8.91,0.84-12.86,2.51
		c-3.95,1.67-7.39,3.98-10.3,6.93c-2.92,2.95-5.18,6.41-6.79,10.39c-1.61,3.98-2.42,8.31-2.42,12.99c0,4.62,0.8,8.94,2.42,12.95
		c1.61,4.01,3.88,7.49,6.79,10.44c2.92,2.95,6.35,5.26,10.3,6.93c3.95,1.67,8.24,2.51,12.86,2.51c4.68,0,8.98-0.84,12.9-2.51
		c3.92-1.67,7.34-3.98,10.26-6.93c2.92-2.95,5.18-6.43,6.79-10.44c1.61-4.01,2.42-8.33,2.42-12.95c0-4.68-0.81-9.01-2.42-12.99
		C668.47,208.55,666.21,205.09,663.29,202.14z M661.15,238.38c-2.1,3.77-4.96,6.75-8.57,8.94c-3.62,2.19-7.77,3.28-12.45,3.28
		c-4.62,0-8.75-1.09-12.4-3.28c-3.65-2.19-6.52-5.17-8.62-8.94c-2.1-3.77-3.15-8.05-3.15-12.86s1.05-9.09,3.15-12.86
		c2.1-3.77,4.97-6.75,8.62-8.94c3.65-2.19,7.78-3.28,12.4-3.28c4.68,0,8.83,1.09,12.45,3.28c3.62,2.19,6.47,5.17,8.57,8.94
		c2.1,3.77,3.15,8.05,3.15,12.86S663.24,234.61,661.15,238.38z"/>
	<path class="st0" d="M718.18,232.59c-1.03-2.1-2.36-3.89-3.97-5.38c-1.61-1.49-3.36-2.72-5.24-3.69c-1.88-0.97-3.68-1.76-5.38-2.37
		c-3.71-1.28-6.64-2.57-8.8-3.88c-2.16-1.31-3.69-2.7-4.6-4.19c-0.91-1.49-1.37-3.11-1.37-4.88c0-2.07,0.79-3.93,2.37-5.61
		c1.58-1.67,4.1-2.51,7.57-2.51c2.49,0,4.6,0.49,6.34,1.46c1.73,0.97,3.2,2.22,4.42,3.74c1.21,1.52,2.22,3.07,3.01,4.65l6.66-3.83
		c-1.03-2.25-2.46-4.39-4.29-6.43c-1.82-2.04-4.03-3.71-6.61-5.01c-2.58-1.31-5.61-1.96-9.07-1.96c-3.59,0-6.78,0.72-9.57,2.14
		c-2.8,1.43-4.99,3.39-6.57,5.88c-1.58,2.49-2.37,5.32-2.37,8.48c0,2.92,0.56,5.38,1.69,7.39c1.12,2.01,2.57,3.69,4.33,5.06
		c1.76,1.37,3.62,2.49,5.56,3.37c1.94,0.88,3.71,1.6,5.29,2.14c2.43,0.85,4.73,1.81,6.88,2.87c2.16,1.06,3.91,2.45,5.24,4.15
		c1.34,1.7,2.01,3.98,2.01,6.84c0,2.92-1.04,5.32-3.1,7.2c-2.07,1.88-4.8,2.83-8.21,2.83c-2.55,0-4.83-0.55-6.84-1.64
		c-2.01-1.09-3.82-2.61-5.43-4.56c-1.61-1.95-3.15-4.19-4.6-6.75l-6.2,4.19c1.4,2.8,3.21,5.42,5.43,7.89
		c2.22,2.46,4.8,4.44,7.75,5.93c2.95,1.49,6.16,2.23,9.62,2.23c2.55,0,5-0.43,7.34-1.28c2.34-0.85,4.44-2.07,6.29-3.65
		c1.85-1.58,3.31-3.49,4.38-5.74c1.06-2.25,1.6-4.77,1.6-7.57C719.73,237.2,719.21,234.69,718.18,232.59z"/>
</g>
<g>
	<path class="st2" d="M378.63,272.48c-5.39-2.57-11.51-3.85-18.37-3.85H344.4h-5.74h-7.1v105.81h12.85v-42.32h15.87
		c6.85,0,12.97-1.28,18.37-3.85c5.39-2.57,9.67-6.25,12.85-11.03c3.17-4.78,4.76-10.4,4.76-16.85c0-6.55-1.59-12.19-4.76-16.93
		C388.31,278.7,384.02,275.05,378.63,272.48z M376.97,315.03c-4.28,3.33-9.85,4.99-16.7,4.99H344.4v-39.3h15.87
		c6.85,0,12.42,1.64,16.7,4.91c4.28,3.28,6.42,8.19,6.42,14.74C383.39,306.82,381.25,311.71,376.97,315.03z"/>
	<rect x="410.6" y="268.63" class="st2" width="12.85" height="105.81"/>
	<polygon class="st2" points="520.19,347.38 440.08,263.34 440.08,374.44 452.93,374.44 452.93,295.68 533.04,379.73 533.04,268.63 
		520.19,268.63 	"/>
	<polygon class="st2" points="619.96,268.63 604.08,268.63 562.52,314.2 562.52,268.63 549.67,268.63 549.67,374.44 562.52,374.44 
		562.52,323.11 606.35,374.44 622.22,374.44 574.16,318.21 	"/>
	<polygon class="st2" points="705.51,268.63 678.15,317.6 650.94,268.63 636.58,268.63 671.8,328.94 671.8,374.44 684.65,374.44 
		684.65,328.79 719.87,268.63 	"/>
</g>
<g>
	<path class="st2" d="M672.33,400.35c-0.55-0.33-1.18-0.49-1.88-0.49c-0.7,0-1.33,0.16-1.88,0.49c-0.55,0.33-0.99,0.77-1.31,1.34
		c-0.32,0.57-0.48,1.23-0.48,1.98c0,0.75,0.16,1.41,0.48,1.99c0.32,0.58,0.76,1.03,1.31,1.37c0.55,0.34,1.18,0.5,1.88,0.5
		c0.7,0,1.33-0.17,1.88-0.5c0.55-0.34,0.99-0.79,1.31-1.37c0.32-0.58,0.48-1.24,0.48-1.99c0-0.75-0.16-1.41-0.48-1.98
		C673.32,401.13,672.89,400.68,672.33,400.35z"/>
	<path class="st2" d="M330.77,392.8v13.05v1.26v13.05l389.09,0v-13.05v-1.15v-13.05L330.77,392.8z M587.9,412.16
		c-0.27,0.58-0.65,1.07-1.12,1.47c-0.48,0.41-1.01,0.72-1.61,0.94s-1.23,0.33-1.88,0.33c-0.89,0-1.71-0.19-2.47-0.57
		c-0.76-0.38-1.42-0.89-1.99-1.52c-0.57-0.63-1.03-1.31-1.39-2.02l1.59-1.08c0.37,0.66,0.77,1.23,1.18,1.73
		c0.41,0.5,0.88,0.89,1.39,1.17c0.52,0.28,1.1,0.42,1.76,0.42c0.87,0,1.57-0.24,2.1-0.72c0.53-0.48,0.79-1.1,0.79-1.85
		c0-0.73-0.17-1.32-0.51-1.75c-0.34-0.44-0.79-0.79-1.34-1.07c-0.55-0.27-1.14-0.52-1.77-0.74c-0.41-0.14-0.86-0.32-1.36-0.55
		c-0.5-0.23-0.98-0.52-1.43-0.86c-0.45-0.35-0.82-0.78-1.11-1.3c-0.29-0.51-0.43-1.14-0.43-1.89c0-0.81,0.2-1.54,0.61-2.18
		c0.41-0.64,0.97-1.14,1.69-1.51c0.72-0.37,1.53-0.55,2.45-0.55c0.89,0,1.66,0.17,2.33,0.5c0.66,0.34,1.23,0.76,1.69,1.29
		c0.47,0.52,0.83,1.07,1.1,1.65l-1.71,0.98c-0.2-0.4-0.46-0.8-0.77-1.19c-0.31-0.39-0.69-0.71-1.13-0.96
		c-0.45-0.25-0.99-0.37-1.63-0.37c-0.89,0-1.54,0.21-1.94,0.64c-0.41,0.43-0.61,0.91-0.61,1.44c0,0.45,0.12,0.87,0.35,1.25
		c0.23,0.38,0.63,0.74,1.18,1.08c0.55,0.34,1.3,0.67,2.26,0.99c0.44,0.16,0.9,0.36,1.38,0.61c0.48,0.25,0.93,0.56,1.34,0.95
		c0.41,0.38,0.75,0.84,1.02,1.38c0.26,0.54,0.4,1.18,0.4,1.93C588.31,410.94,588.17,411.59,587.9,412.16z M593.8,414.66h-1.99V398.3
		h1.99V414.66z M612.51,415.48l-12.39-13v12.18h-1.99v-17.19l12.39,13V398.3h1.99V415.48z M629.35,402.48
		c-0.37-0.48-0.83-0.91-1.36-1.27c-0.53-0.37-1.12-0.65-1.77-0.85c-0.65-0.2-1.36-0.3-2.14-0.3c-1.08,0-2.07,0.27-2.99,0.82
		c-0.92,0.55-1.66,1.3-2.23,2.26c-0.57,0.96-0.85,2.08-0.85,3.36c0,1.26,0.28,2.38,0.85,3.34c0.57,0.97,1.31,1.72,2.23,2.27
		c0.92,0.55,1.92,0.82,2.99,0.82c0.78,0,1.49-0.1,2.14-0.3c0.65-0.2,1.24-0.49,1.77-0.85c0.53-0.37,0.98-0.79,1.36-1.27v2.62
		c-0.68,0.61-1.43,1.06-2.24,1.36c-0.81,0.3-1.82,0.45-3.02,0.45c-1.14,0-2.2-0.21-3.19-0.62c-0.99-0.41-1.86-1-2.61-1.75
		c-0.75-0.76-1.33-1.65-1.75-2.68c-0.42-1.03-0.63-2.15-0.63-3.37s0.21-2.34,0.63-3.37c0.42-1.03,1.01-1.92,1.75-2.68
		c0.75-0.76,1.62-1.34,2.61-1.75s2.05-0.62,3.19-0.62c1.2,0,2.21,0.15,3.02,0.45c0.81,0.3,1.56,0.75,2.24,1.36V402.48z
		 M642.79,400.17h-7.37v4.68h6.9v1.87h-6.9v6.08h7.37v1.87h-7.37h-0.89h-1.1V398.3h1.1h0.89h7.37V400.17z M660.09,414.66h-1.99
		v-14.22l-3.62,1.07v-2.06l5.61-1.4V414.66z M675.74,405.54c-0.19,0.58-0.44,1.08-0.75,1.52l-5.52,7.6h-2.5l4.61-6.08
		c-0.14,0.08-0.28,0.17-0.44,0.21c-0.41,0.13-0.88,0.19-1.41,0.19c-0.67,0-1.3-0.13-1.88-0.4c-0.58-0.27-1.1-0.64-1.54-1.12
		c-0.45-0.48-0.79-1.05-1.04-1.7c-0.25-0.65-0.37-1.34-0.37-2.09c0-1.12,0.25-2.11,0.74-2.95c0.49-0.84,1.16-1.5,2-1.96
		c0.84-0.47,1.78-0.7,2.83-0.7c1.06,0,2.01,0.23,2.84,0.7c0.83,0.47,1.5,1.12,1.99,1.96c0.49,0.84,0.74,1.82,0.74,2.95
		C676.02,404.34,675.92,404.97,675.74,405.54z M681.39,414.66h-2.08l6.94-14.5h-8.49v-1.87h11.46L681.39,414.66z M700.98,412.75
		c-0.44,0.69-1.05,1.22-1.81,1.59c-0.76,0.37-1.64,0.56-2.62,0.56c-0.79,0-1.51-0.12-2.15-0.35c-0.64-0.23-1.18-0.56-1.64-0.97
		c-0.45-0.41-0.8-0.9-1.05-1.45c-0.25-0.55-0.37-1.15-0.37-1.79h2.01c0,0.51,0.14,0.97,0.41,1.38c0.27,0.41,0.65,0.72,1.14,0.96
		c0.48,0.23,1.04,0.35,1.66,0.35c0.62,0,1.16-0.12,1.62-0.36c0.46-0.24,0.81-0.58,1.07-1.02c0.25-0.44,0.37-0.95,0.37-1.54
		c0-0.5-0.1-0.94-0.29-1.32c-0.19-0.38-0.46-0.7-0.81-0.96c-0.34-0.26-0.74-0.45-1.19-0.57c-0.45-0.12-0.94-0.19-1.47-0.19v-0.47
		v-0.82v-0.47c0.53,0,1-0.07,1.4-0.22c0.41-0.15,0.75-0.35,1.03-0.61c0.28-0.26,0.49-0.56,0.64-0.9c0.15-0.34,0.22-0.71,0.22-1.1
		c0-0.51-0.09-0.97-0.28-1.37c-0.19-0.4-0.46-0.7-0.83-0.92c-0.37-0.22-0.82-0.33-1.37-0.33c-0.76,0-1.41,0.24-1.94,0.71
		c-0.53,0.48-0.79,1.07-0.79,1.79h-1.89c0-0.86,0.2-1.6,0.6-2.24c0.4-0.64,0.94-1.14,1.64-1.51c0.69-0.37,1.49-0.55,2.37-0.55
		c0.94,0,1.74,0.2,2.42,0.61c0.68,0.41,1.2,0.93,1.57,1.59c0.37,0.65,0.55,1.37,0.55,2.15c0,0.76-0.23,1.47-0.68,2.11
		c-0.45,0.64-1.07,1.15-1.87,1.52c-0.09,0.04-0.19,0.05-0.28,0.09c0.58,0.17,1.11,0.4,1.58,0.72c0.54,0.37,0.96,0.84,1.26,1.41
		c0.3,0.58,0.46,1.27,0.46,2.08C701.64,411.26,701.42,412.06,700.98,412.75z"/>
</g>
</svg>
